<svg xmlns="http://www.w3.org/2000/svg" viewBox="0 0 128 128">
  <defs>
    <linearGradient id="bg" x1="0%" y1="0%" x2="100%" y2="100%">
      <stop offset="0%" style="stop-color:#4B8BBE"/>
      <stop offset="100%" style="stop-color:#306998"/>
    </linearGradient>
  </defs>
  <!-- Background rounded rectangle -->
  <rect x="4" y="4" width="120" height="120" rx="20" ry="20" fill="url(#bg)"/>
  <!-- Notebook icon (stylized) -->
  <rect x="30" y="22" width="68" height="84" rx="6" ry="6" fill="#fff" opacity="0.95"/>
  <!-- Notebook lines -->
  <line x1="42" y1="42" x2="86" y2="42" stroke="#306998" stroke-width="3" stroke-linecap="round"/>
  <line x1="42" y1="54" x2="78" y2="54" stroke="#306998" stroke-width="3" stroke-linecap="round"/>
  <line x1="42" y1="66" x2="82" y2="66" stroke="#306998" stroke-width="3" stroke-linecap="round"/>
  <!-- Kernel dot pattern (representing Python/Jupyter) -->
  <circle cx="52" cy="84" r="5" fill="#F7CA18"/>
  <circle cx="64" cy="84" r="5" fill="#E67E22"/>
  <circle cx="76" cy="84" r="5" fill="#E74C3C"/>
  <!-- Gear overlay (bottom-right, representing management) -->
  <g transform="translate(88, 88)">
    <circle cx="0" cy="0" r="18" fill="#2C3E50" opacity="0.9"/>
    <path d="M0-12 L3-4 L11-4 L5 1 L7 9 L0 5 L-7 9 L-5 1 L-11-4 L-3-4 Z" fill="#F7CA18"/>
  </g>
</svg>
